<svg>
  <symbol id='star' viewBox="0 0 22 22" fill="none" xmlns="http://www.w3.org/2000/svg">
    <path d="M19.4136 7.744L14.0896 7.282L12.0106 2.387C11.6366 1.496 10.3606 1.496 9.98659 2.387L7.90759 7.293L2.59459 7.744C1.62659 7.821 1.23059 9.031 1.96759 9.669L6.00459 13.167L4.79459 18.359C4.57459 19.305 5.59759 20.053 6.43359 19.547L10.9986 16.797L15.5636 19.558C16.3996 20.064 17.4226 19.316 17.2026 18.37L15.9926 13.167L20.0296 9.669C20.7666 9.031 20.3816 7.821 19.4136 7.744ZM10.9986 14.74L6.86259 17.237L7.96259 12.529L4.31059 9.361L9.12859 8.943L10.9986 4.51L12.8796 8.954L17.6976 9.372L14.0456 12.54L15.1456 17.248L10.9986 14.74Z" fill="currentColor"/>
  </symbol>
  <symbol id="bell" viewBox="0 0 22 22" fill="none" xmlns="http://www.w3.org/2000/svg">
    <path d="M10.9974 20.168C12.0057 20.168 12.8307 19.343 12.8307 18.3346H9.16406C9.16406 19.343 9.98906 20.168 10.9974 20.168ZM16.4974 14.668V10.0846C16.4974 7.27047 15.0032 4.91464 12.3724 4.2913V3.66797C12.3724 2.90714 11.7582 2.29297 10.9974 2.29297C10.2366 2.29297 9.6224 2.90714 9.6224 3.66797V4.2913C7.00073 4.91464 5.4974 7.2613 5.4974 10.0846V14.668L3.66406 16.5013V17.418H18.3307V16.5013L16.4974 14.668ZM14.6641 15.5846H7.33073V10.0846C7.33073 7.8113 8.7149 5.95964 10.9974 5.95964C13.2799 5.95964 14.6641 7.8113 14.6641 10.0846V15.5846Z" fill="currentColor"/>
  </symbol>
    <symbol id="search" viewBox="0 0 24 24" fill="none" xmlns="http://www.w3.org/2000/svg">
    <path d="M21.3065 19.8886L16.5734 15.1359C17.7904 13.7392 18.4571 11.9819 18.4571 10.1524C18.4571 5.878 14.8551 2.40039 10.4278 2.40039C6.00047 2.40039 2.39844 5.878 2.39844 10.1524C2.39844 14.4268 6.00047 17.9044 10.4278 17.9044C12.0899 17.9044 13.6737 17.4204 15.0279 16.5016L19.797 21.2903C19.9963 21.4902 20.2644 21.6004 20.5518 21.6004C20.8237 21.6004 21.0817 21.5003 21.2775 21.3183C21.6937 20.9317 21.7069 20.2906 21.3065 19.8886ZM10.4278 4.42265C13.7003 4.42265 16.3625 6.99294 16.3625 10.1524C16.3625 13.3118 13.7003 15.8821 10.4278 15.8821C7.15531 15.8821 4.49305 13.3118 4.49305 10.1524C4.49305 6.99294 7.15531 4.42265 10.4278 4.42265Z" fill="currentColor"/>
  </symbol>
  <symbol id="ball" viewBox="0 0 16 16" fill="none" xmlns="http://www.w3.org/2000/svg">
    <path d="M15.6029 5.52903C14.5062 2.14839 11.3708 0 8.00312 0C2.61938 0 -1.2902 5.27097 0.396851 10.471C1.4936 13.8516 4.63546 16 7.99989 16C13.3836 16 17.29 10.729 15.6029 5.52903ZM14.2159 11.1323L11.174 11.5065L10.5998 10.7032L11.6869 7.34516L12.6191 7.05484L14.8642 9.15161C14.7481 9.83226 14.532 10.5 14.2159 11.1323ZM1.14845 9.14516L3.3871 7.05161L4.31933 7.34194L5.41286 10.6871L4.829 11.5L1.79036 11.1258C1.37102 10.2871 1.23554 9.66774 1.14845 9.14516ZM7.487 3.31613V4.37742L4.7161 6.3871L3.7 6.07097L3.11936 3.04194C3.6129 2.55484 4.1774 2.14516 4.79674 1.82258L7.487 3.31613ZM12.3062 6.07097L11.2901 6.3871L8.51923 4.37742V3.31613L11.2159 1.81935C11.8321 2.14194 12.3998 2.55161 12.8933 3.04194L12.3062 6.07097ZM5.35802 7.2L8.00312 5.28064L10.6514 7.20323L9.64824 10.3H6.3709L5.35802 7.2ZM14.961 7.82903L13.3127 6.29032L13.7417 4.0871C14.8546 5.72581 14.9449 7.22258 14.961 7.82903ZM9.97404 1.32903L8.00312 2.42258L6.03542 1.33226C8.34182 0.648387 9.97081 1.32903 9.97404 1.32903ZM2.26777 4.06774L2.69357 6.29032L1.04522 7.82258C1.07103 6.79677 1.32586 5.77742 1.80649 4.83548C1.94197 4.56774 2.10003 4.3129 2.26777 4.06774ZM2.5097 12.2613L4.72578 12.5323L5.66769 14.5548C4.41611 14.1097 3.32259 13.3129 2.5097 12.2613ZM6.95798 14.8839L5.66446 12.1097L6.22574 11.329H9.78049L10.3385 12.1097L9.04502 14.8839C8.31279 14.9968 7.67732 14.9935 6.95798 14.8839ZM10.3385 14.5548L11.2805 12.5323L13.5062 12.2581C12.6998 13.3097 11.6095 14.1 10.3385 14.5548Z" fill="currentColor" />
  </symbol>
  <symbol id="crumbs-divider" viewBox="0 0 8 8" fill="none" xmlns="http://www.w3.org/2000/svg">
    <path d="M6.0847 3.71446L2.48714 0.118095C2.32928 -0.039365 2.07353 -0.039365 1.91527 0.118095C1.75741 0.275555 1.75741 0.531311 1.91527 0.688771L5.22747 3.99978L1.91567 7.3108C1.75781 7.46826 1.75781 7.72401 1.91567 7.88187C2.07353 8.03933 2.32968 8.03933 2.48754 7.88187L6.0851 4.2855C6.24057 4.12967 6.24057 3.8699 6.0847 3.71446Z" fill="black" fill-opacity="0.38"/>
  </symbol>
  <symbol id="read-arrow" viewBox="0 0 16 16" fill="none" xmlns="http://www.w3.org/2000/svg">
    <path d="M7.73087 0.126079L7.47833 0.379655C7.31097 0.547725 7.31097 0.820238 7.47833 0.988344L13.8531 7.39028L0.428571 7.39028C0.191892 7.39028 0 7.58299 0 7.82068V8.17935C0 8.41703 0.191892 8.60974 0.428571 8.60974L13.8531 8.60974L7.47837 15.0117C7.31101 15.1798 7.31101 15.4523 7.47837 15.6204L7.7309 15.8739C7.89826 16.042 8.16962 16.042 8.33697 15.8739L15.8745 8.30434C16.0418 8.13627 16.0418 7.86376 15.8745 7.69565L8.33694 0.126079C8.16958 -0.0420265 7.89822 -0.0420265 7.73087 0.126079Z" fill="black" fill-opacity="0.38"/>
  </symbol>
  <symbol id="lightning" viewBox="0 0 14 14" fill="none" xmlns="http://www.w3.org/2000/svg">
    <path d="M11.5679 5.55022C11.5173 5.4596 11.4434 5.38412 11.3539 5.33156C11.2644 5.27901 11.1625 5.25129 11.0587 5.25127H7.57051L8.16792 0.686683C8.18532 0.554257 8.15675 0.41987 8.08699 0.305975C8.01722 0.192081 7.91048 0.105577 7.7846 0.0609181C7.65873 0.016259 7.52134 0.0161495 7.39539 0.0606078C7.26944 0.105066 7.16256 0.191399 7.09262 0.305183L2.44578 7.86241C2.39144 7.95081 2.36165 8.0521 2.3595 8.15584C2.35735 8.25958 2.38291 8.36202 2.43354 8.45259C2.48418 8.54316 2.55806 8.61859 2.64756 8.67109C2.73706 8.72359 2.83895 8.75127 2.94271 8.75127H6.37359L5.8367 13.3231C5.82119 13.4551 5.85121 13.5885 5.9218 13.7011C5.99238 13.8137 6.0993 13.8988 6.22486 13.9423C6.35042 13.9859 6.48709 13.9853 6.61224 13.9406C6.7374 13.8959 6.84354 13.8098 6.9131 13.6965L11.5558 6.14019C11.6101 6.05181 11.6398 5.95055 11.6419 5.84685C11.6441 5.74315 11.6185 5.64076 11.5679 5.55022Z" fill="#FFCE00"/>
  </symbol>
  <symbol id="video-camera-filled" preserveAspectRatio='none' viewBox="0 0 13 10" fill="none" xmlns="http://www.w3.org/2000/svg">
    <path d="M7.58785 0.650391H1.07882C0.482986 0.650391 0 1.13338 0 1.72921V8.23824C0 8.83407 0.482986 9.31706 1.07882 9.31706H7.58785C8.18368 9.31706 8.66667 8.83407 8.66667 8.23824V1.72921C8.66667 1.13338 8.18368 0.650391 7.58785 0.650391ZM11.8625 1.50126L9.38889 3.20751V6.75994L11.8625 8.46393C12.341 8.79345 13 8.45716 13 7.88164V2.08355C13 1.51029 12.3432 1.17174 11.8625 1.50126Z" fill="black" fill-opacity="0.54"/>
  </symbol>
  <symbol id="video-camera-outlined" preserveAspectRatio='none' viewBox="0 0 18 12" fill="none" xmlns="http://www.w3.org/2000/svg">
    <path d="M16.9998 1.00017C16.806 1.00017 16.6091 1.05643 16.431 1.17833L13.0022 3.36308V1.49401C13.0022 0.668866 12.2771 0 11.3832 0H1.61903C0.725125 0 0 0.668866 0 1.49401V10.5081C0 11.3332 0.725125 12.0021 1.61903 12.0021H11.3832C12.2771 12.0021 13.0022 11.3332 13.0022 10.5081V8.63899L16.4278 10.8237C16.606 10.9488 16.806 11.0019 16.9967 11.0019C17.5155 11.0019 18 10.5956 18 10.0174V1.98472C18.0031 1.40649 17.5187 1.00017 16.9998 1.00017ZM12.0021 10.5081C12.0021 10.7769 11.7176 11.0019 11.3832 11.0019H1.61903C1.2846 11.0019 1.00017 10.7769 1.00017 10.5081V1.49401C1.00017 1.22521 1.2846 1.00017 1.61903 1.00017H11.3832C11.7176 1.00017 12.0021 1.22521 12.0021 1.49401V10.5081ZM17.0029 10.0174L16.9654 9.97672L13.0022 7.45129V4.54766L17.0029 2.00035V10.0174Z" fill="white"/>
  </symbol>
  <symbol id="review" viewBox="0 0 16 16" fill="none" xmlns="http://www.w3.org/2000/svg">
    <path d="M12.875 1.5H3.125C2.22871 1.5 1.5 2.22871 1.5 3.125V10.4375C1.5 11.3338 2.22871 12.0625 3.125 12.0625H5.5625V14.1953C5.5625 14.3756 5.70977 14.5 5.86719 14.5C5.92812 14.5 5.9916 14.4822 6.04746 14.4391L9.21875 12.0625H12.875C13.7713 12.0625 14.5 11.3338 14.5 10.4375V3.125C14.5 2.22871 13.7713 1.5 12.875 1.5ZM13.2812 10.4375C13.2812 10.6609 13.0984 10.8438 12.875 10.8438H8.8125L8.4875 11.0875L6.78125 12.3672V10.8438H3.125C2.90156 10.8438 2.71875 10.6609 2.71875 10.4375V3.125C2.71875 2.90156 2.90156 2.71875 3.125 2.71875H12.875C13.0984 2.71875 13.2812 2.90156 13.2812 3.125V10.4375ZM10.8438 4.95312H5.15625C4.93281 4.95312 4.75 5.13594 4.75 5.35938V5.76562C4.75 5.98906 4.93281 6.17188 5.15625 6.17188H10.8438C11.0672 6.17188 11.25 5.98906 11.25 5.76562V5.35938C11.25 5.13594 11.0672 4.95312 10.8438 4.95312ZM8.40625 7.39062H5.15625C4.93281 7.39062 4.75 7.57344 4.75 7.79688V8.20312C4.75 8.42656 4.93281 8.60938 5.15625 8.60938H8.40625C8.62969 8.60938 8.8125 8.42656 8.8125 8.20312V7.79688C8.8125 7.57344 8.62969 7.39062 8.40625 7.39062Z" fill="white" fill-opacity="0.54"/>
  </symbol>
  <symbol id="win" viewBox="0 0 18 18" fill="none" xmlns="http://www.w3.org/2000/svg">
    <rect width="18" height="18" rx="2" fill="currentColor"/>
    <path d="M7.40313 10.7605L5.32313 8.68047L4.20312 9.80047L7.40313 13.0005L13.8031 6.60047L12.6831 5.48047L7.40313 10.7605Z" fill="white"/>
  </symbol>
  <symbol id="draw" viewBox="0 0 18 18" fill="none" xmlns="http://www.w3.org/2000/svg">
    <rect width="18" height="18" rx="2" fill="currentColor"/>
    <path fill-rule="evenodd" clip-rule="evenodd" d="M6 6.5H12V8.5H6V6.5Z" fill="white"/>
    <path fill-rule="evenodd" clip-rule="evenodd" d="M6 10H12V12H6V10Z" fill="white"/>
  </symbol>
  <symbol id="loss" viewBox="0 0 18 18" fill="none" xmlns="http://www.w3.org/2000/svg">
    <rect width="18" height="18" rx="2" fill="currentColor"/>
    <path fill-rule="evenodd" clip-rule="evenodd" d="M11.2662 12.3937L9.00349 10.131L6.74075 12.3937L5.60938 11.2623L7.87212 8.99958L5.60938 6.73684L6.74075 5.60547L9.00349 7.86821L11.2662 5.60547L12.3976 6.73684L10.1349 8.99958L12.3976 11.2623L11.2662 12.3937Z" fill="white"/>
  </symbol>

</svg>